<svg width="149" height="40" viewBox="0 0 149 40" fill="none" xmlns="http://www.w3.org/2000/svg">
<path d="M23.5223 37.4164C25.0124 31.2361 26.401 25.2983 27.9061 19.3905C28.2143 18.1878 28.0208 17.5114 27.0343 16.7598C24.738 15.0028 22.5451 13.1106 20.3128 11.2729C20.0441 11.053 19.7848 10.8256 19.4672 10.5532L28.8476 0.0510254C29.1369 1.53549 29.4113 2.89031 29.6668 4.24512C30.9972 11.2729 32.3163 18.3025 33.6693 25.3265C33.8046 26.0311 33.6937 26.5234 33.1845 27.0627C30.27 30.1482 27.3969 33.2637 24.5088 36.3829C24.2363 36.6723 23.9563 36.9598 23.5223 37.4164Z" fill="#830F35"/>
<path d="M8.85801 26.3506C7.70802 26.0142 7.17812 25.0352 6.55239 24.0374C6.66701 26.3731 8.71708 29.6014 11.1975 31.6139L10.1489 31.1892C10.2316 31.4466 10.2955 31.6496 10.3744 31.892C10.2805 31.8732 10.1865 31.8807 10.1471 31.8412C6.99773 29.2105 3.85466 26.5673 0.71786 23.9115C0.503363 23.7239 0.371666 23.4592 0.35144 23.1749C0.573171 16.9114 0.811187 10.6478 1.06549 4.38419C1.09218 4.27634 1.13062 4.17174 1.18011 4.07227L8.55172 10.2037C7.07394 12.6728 6.27166 15.4873 6.22543 18.3645C6.18972 21.2733 6.776 24.0694 8.85801 26.3506Z" fill="#830F35"/>
<path d="M8.91248 10.5078L12.6274 13.597C15.4748 15.9646 18.3229 18.3304 21.1716 20.6943C21.5286 20.9893 21.7184 21.2693 21.6864 21.7785C21.3632 26.8201 21.0738 31.8654 20.7732 36.9088C20.7243 37.7412 20.6698 38.5737 20.5327 39.4456C17.4698 35.1613 14.3092 30.9559 11.9434 26.2281C14.0396 29.7674 16.4401 33.1173 19.1177 36.2399C19.3639 33.2164 19.1384 30.2719 18.0692 27.1714C17.731 27.8855 17.4792 28.4154 17.1691 29.0655C16.3799 24.4336 14.1626 20.6097 11.4774 17.0301C10.2955 15.4592 9.41043 13.7417 9.05341 11.7837C8.98764 11.4417 8.97073 11.0903 8.91248 10.5078Z" fill="#830F35"/>
<path d="M10.5773 9.24325L19.8374 15.8895L19.9671 15.7279L8.84671 6.60127L8.93315 6.48101L17.9771 12.7496L18.0899 12.6087L6.54297 2.11968C6.16715 2.91077 5.8214 3.60603 5.48317 4.30129L5.37982 4.26934C5.61095 3.06486 5.8402 1.85849 6.09199 0.54126C6.32875 0.704739 6.52418 0.817484 6.69517 0.958414C13.4411 6.5092 20.1869 12.0594 26.9328 17.6089C27.2692 17.8851 27.4665 18.1068 27.3424 18.6142C25.8392 24.7794 24.351 30.9522 22.7669 37.1156C22.8345 36.129 22.8966 35.1407 22.9698 34.156C23.2987 29.8154 23.6444 25.4766 23.9357 21.134C23.9582 20.8183 23.682 20.3824 23.4152 20.1644C19.3564 16.7533 15.285 13.3578 11.2012 9.97797L10.4496 9.356L10.5773 9.24325Z" fill="#830F35"/>
<path d="M34.979 0.498047C35.8208 4.84059 36.6251 9.02529 37.4406 13.2062C38.3332 17.7893 39.2445 22.3686 40.1126 26.9573C40.136 27.127 40.1204 27.2998 40.0671 27.4626C40.0137 27.6254 39.9239 27.7739 39.8045 27.8968C34.9627 31.5773 30.1066 35.2396 25.236 38.8838C25.1016 38.9549 24.9629 39.0176 24.8207 39.0717C26.401 37.42 27.8122 35.943 29.229 34.4661C31.2678 32.3408 33.2916 30.1968 35.3661 28.1035C35.8885 27.5774 36.0106 27.0869 35.8716 26.3804C34.8456 21.1303 33.8516 15.8895 32.8519 10.6281C32.8394 10.4448 32.8394 10.2609 32.8519 10.0776C33.953 14.2435 34.9922 18.1877 36.0332 22.13L36.2662 22.0773C35.2891 17.1266 34.3107 12.1784 33.3311 7.23265L33.4213 7.20822L36.3564 17.6183L36.6082 17.5657C35.8565 12.3963 35.1049 7.23077 34.3307 1.9299L32.3784 2.8281L32.2995 2.72287L34.979 0.498047Z" fill="#830F35"/>
<path d="M15.0477 35.9731C17.1767 35.9506 18.1726 37.4764 19.3695 39.1676C18.9223 39.0003 18.6461 38.9646 18.4638 38.8162C17.3101 37.886 16.1845 36.9352 15.0477 35.9731Z" fill="#830F35"/>
<path d="M48.995 17.8345V0.563965H54.3316C56.3359 0.563965 57.8548 0.93101 58.8883 1.6651C59.9218 2.39919 60.436 3.48906 60.431 4.93469C60.4546 5.74073 60.2071 6.53138 59.7283 7.18018C59.2585 7.79527 58.552 8.27381 57.6087 8.6158C58.5798 8.79218 59.4545 9.3136 60.0716 10.084C60.6886 10.8544 61.0065 11.8218 60.9666 12.808C60.9666 14.4679 60.3534 15.7206 59.127 16.5662C57.9006 17.4117 56.0841 17.8345 53.6777 17.8345H48.995ZM52.7531 7.38876H54.123C54.9335 7.38876 55.5667 7.21213 56.0227 6.85886C56.2466 6.68244 56.4249 6.45486 56.5426 6.19524C56.6604 5.93563 56.714 5.65155 56.6992 5.36688C56.6992 4.72423 56.4831 4.25071 56.049 3.95006C55.615 3.6494 54.9441 3.4878 54.0234 3.4878H52.7531V7.38876ZM52.7531 14.7171H54.4687C55.293 14.7171 55.9419 14.5148 56.4155 14.1102C56.652 13.904 56.8388 13.647 56.9618 13.3583C57.0848 13.0697 57.1409 12.7569 57.1257 12.4435C57.1425 12.141 57.0887 11.8388 56.9687 11.5606C56.8487 11.2825 56.6658 11.036 56.4342 10.8406C55.9732 10.4648 55.3181 10.2769 54.4687 10.2769H52.7531V14.7171Z" fill="#830F35"/>
<path d="M62.872 9.19811C62.8634 7.97008 63.0878 6.75157 63.5334 5.6072C63.9762 4.48854 64.6388 3.47005 65.482 2.61196C66.278 1.77927 67.2376 1.1203 68.3006 0.67651C69.3784 0.231795 70.5338 0.00610038 71.6997 0.0125871C72.8655 0.0190739 74.0184 0.257613 75.0911 0.714292C76.1638 1.17097 77.1349 1.83665 77.9476 2.67252C78.7604 3.50838 79.3986 4.4977 79.825 5.58277C80.264 6.73709 80.4839 7.96317 80.4733 9.19811C80.4806 10.232 80.3278 11.2607 80.0204 12.2478C79.7288 13.1877 79.2768 14.0701 78.6844 14.856C77.8673 15.9554 76.805 16.8491 75.5821 17.466C73.9389 18.3008 72.0711 18.5857 70.2537 18.2789C68.4364 17.9721 66.7657 17.0897 65.4877 15.7617C64.6461 14.9066 63.9837 13.8921 63.5391 12.7777C63.0906 11.638 62.8642 10.4229 62.872 9.19811ZM67.1131 9.19811C67.1131 10.7014 67.5515 11.9585 68.4284 12.9694C68.8265 13.4438 69.3237 13.8253 69.8849 14.0871C70.4462 14.3488 71.058 14.4845 71.6773 14.4845C72.2967 14.4845 72.9085 14.3488 73.4697 14.0871C74.031 13.8253 74.5282 13.4438 74.9263 12.9694C75.8032 11.961 76.2416 10.702 76.2416 9.19247C76.2416 7.68295 75.8032 6.42021 74.9263 5.40426C74.5287 4.92896 74.0318 4.54666 73.4704 4.28435C72.909 4.02203 72.297 3.88607 71.6773 3.88607C71.0577 3.88607 70.4456 4.02203 69.8843 4.28435C69.3229 4.54666 68.8259 4.92896 68.4284 5.40426C67.5515 6.41771 67.1131 7.68232 67.1131 9.19811Z" fill="#830F35"/>
<path d="M82.2884 9.19822C82.2789 7.97011 82.5034 6.75143 82.9499 5.60731C83.392 4.48877 84.0539 3.47026 84.8966 2.61207C85.6929 1.77975 86.6524 1.12084 87.7152 0.676623C89.3292 0.000699427 91.1092 -0.173844 92.8238 0.175699C94.5383 0.525242 96.108 1.38269 97.3285 2.6365C98.1633 3.47522 98.8141 4.47868 99.2396 5.58289C99.6801 6.73685 99.9006 7.96309 99.8897 9.19822C99.8961 10.232 99.7434 11.2606 99.4369 12.248C99.1419 13.1876 98.6882 14.0698 98.0952 14.8561C97.2774 15.9556 96.2145 16.8492 94.991 17.4662C93.3477 18.3003 91.48 18.5849 89.6628 18.2781C87.8457 17.9713 86.1749 17.0893 84.8966 15.7618C84.0557 14.9065 83.3939 13.8921 82.9499 12.7779C82.5024 11.638 82.2779 10.4228 82.2884 9.19822ZM86.5276 9.19822C86.5276 10.7015 86.9661 11.9586 87.843 12.9695C88.2411 13.444 88.7382 13.8255 89.2995 14.0872C89.8608 14.3489 90.4726 14.4846 91.0919 14.4846C91.7112 14.4846 92.323 14.3489 92.8843 14.0872C93.4456 13.8255 93.9428 13.444 94.3408 12.9695C95.2177 11.9611 95.6562 10.7021 95.6562 9.19259C95.6562 7.68306 95.2177 6.41845 94.3408 5.39874C93.9433 4.92343 93.4463 4.54114 92.885 4.27882C92.3236 4.0165 91.7115 3.88055 91.0919 3.88055C90.4723 3.88055 89.8602 4.0165 89.2988 4.27882C88.7375 4.54114 88.2405 4.92343 87.843 5.39874C86.9673 6.41594 86.5289 7.68244 86.5276 9.19822Z" fill="#830F35"/>
<path d="M102.776 17.8345V0.563965H106.85V8.08026L112.555 0.563965H117.463L110.946 8.78115L117.974 17.8345H112.994L106.85 9.87665V17.8327L102.776 17.8345Z" fill="#830F35"/>
<path d="M48.995 39.4477V22.1753H54.3316C56.3359 22.1753 57.8548 22.5423 58.8883 23.2764C59.9218 24.0105 60.436 25.1004 60.431 26.546C60.4552 27.3521 60.2077 28.143 59.7283 28.7915C59.2585 29.4079 58.552 29.8864 57.6087 30.2271C58.5787 30.4159 59.4529 30.936 60.0815 31.6984C60.6882 32.4738 61.004 33.4372 60.9741 34.4212C60.9741 36.0798 60.3609 37.3325 59.1345 38.1794C57.9081 39.0262 56.0916 39.4496 53.6852 39.4496L48.995 39.4477ZM52.7531 29.0001H54.123C54.9335 29.0001 55.5667 28.8235 56.0227 28.4702C56.247 28.2937 56.4256 28.0658 56.5433 27.8058C56.661 27.5458 56.7145 27.2613 56.6992 26.9763C56.6992 26.3318 56.4831 25.8602 56.049 25.5576C55.615 25.2551 54.9404 25.1048 54.0196 25.1048H52.7531V29.0001ZM52.7531 36.3285H54.4687C55.293 36.3285 55.9419 36.1255 56.4155 35.7197C56.6526 35.514 56.8399 35.2571 56.963 34.9683C57.086 34.6795 57.1417 34.3664 57.1257 34.0529C57.1425 33.7505 57.0887 33.4482 56.9687 33.1701C56.8487 32.8919 56.6658 32.6455 56.4342 32.4501C55.9732 32.0743 55.3181 31.8863 54.4687 31.8863H52.7531V36.3285Z" fill="#830F35"/>
<path d="M67.8515 22.1753V31.674C67.8515 33.1998 68.1315 34.3417 68.6915 35.0996C69.2515 35.8575 70.0989 36.2364 71.2339 36.2364C72.33 36.2364 73.1662 35.8831 73.7424 35.1766C74.3187 34.4701 74.6062 33.4416 74.6049 32.0912V22.1753H78.286V32.0855C78.286 34.5797 77.6465 36.5214 76.3675 37.9107C75.0885 39.2999 73.314 39.9964 71.0441 40.0002C68.7479 40.0002 66.9627 39.3112 65.6887 37.9332C64.4147 36.5552 63.7777 34.6135 63.7777 32.1081V22.1753H67.8515Z" fill="#830F35"/>
<path d="M82.1213 39.4477V22.1753H86.2421V39.4477H82.1213Z" fill="#830F35"/>
<path d="M90.2689 39.4477V22.1753H94.3897V35.7422H101.121V39.4477H90.2689Z" fill="#830F35"/>
<path d="M103.144 39.4477V22.1753H107.731C110.954 22.1753 113.479 22.9457 115.306 24.4866C117.132 26.0274 118.045 28.1357 118.045 30.8115C118.088 32.3101 117.711 33.7908 116.958 35.0871C116.204 36.3833 115.105 37.4438 113.782 38.1493C112.976 38.6139 112.102 38.9493 111.192 39.1433C110.053 39.3655 108.894 39.4675 107.733 39.4477H103.144ZM107.218 35.7422H108.124C109.927 35.7422 111.336 35.3038 112.352 34.4269C113.368 33.55 113.876 32.343 113.878 30.8059C113.878 29.265 113.369 28.0537 112.352 27.1718C111.335 26.2898 109.925 25.8514 108.124 25.8564H107.218V35.7422Z" fill="#830F35"/>
<path d="M120.928 39.4477V22.1753H131.565V25.7455H124.93V28.8554H130.613V32.3937H124.93V35.808H131.661V39.4421L120.928 39.4477Z" fill="#830F35"/>
<path d="M134.805 39.4477V22.1753H139.247C140.67 22.1753 141.772 22.2686 142.552 22.4553C143.301 22.6271 144.008 22.9465 144.632 23.3948C145.259 23.8371 145.771 24.4227 146.126 25.1029C146.475 25.7656 146.657 26.5035 146.656 27.2526C146.677 28.2677 146.389 29.2652 145.829 30.1125C145.232 30.966 144.404 31.6311 143.441 32.0292L148.702 39.4515H144.005L139.39 32.6699H138.815V39.4477H134.805ZM139.486 25.3209H138.815V30.1087H139.685C140.723 30.1087 141.517 29.8983 142.066 29.4774C142.614 29.0565 142.889 28.4527 142.889 27.6659C142.889 26.8417 142.622 26.2441 142.09 25.8733C141.558 25.5025 140.689 25.3184 139.486 25.3209Z" fill="#830F35"/>
</svg>
