<svg width="20" height="20" viewBox="0 0 20 20" fill="none" xmlns="http://www.w3.org/2000/svg">
<path d="M8.47691 7.74654H3.97984C3.82796 7.74654 3.70703 7.61645 3.70703 7.4531C3.70703 7.28975 3.82797 7.15967 3.97984 7.15967H8.47691C8.62878 7.15967 8.74971 7.28975 8.74971 7.4531C8.74971 7.61645 8.62596 7.74654 8.47691 7.74654Z" fill="#414141"/>
<path d="M8.47691 9.79463H3.97984C3.82796 9.79463 3.70703 9.66455 3.70703 9.5012C3.70703 9.33785 3.82797 9.20776 3.97984 9.20776H8.47691C8.62878 9.20776 8.74971 9.33785 8.74971 9.5012C8.74971 9.66455 8.62596 9.79463 8.47691 9.79463Z" fill="#414141"/>
<path d="M8.47691 11.8393H3.97984C3.82796 11.8393 3.70703 11.7092 3.70703 11.5459C3.70703 11.3825 3.82797 11.2524 3.97984 11.2524H8.47691C8.62878 11.2524 8.74971 11.3825 8.74971 11.5459C8.74971 11.7092 8.62596 11.8393 8.47691 11.8393Z" fill="#414141"/>
<path d="M10.0134 15.9992C9.97682 15.9992 9.94026 15.9901 9.90651 15.9749L8.38497 15.2882H2.40562C2.25374 15.2882 2.13281 15.1582 2.13281 14.9948V3.29343C2.13281 3.13008 2.25375 3 2.40562 3H8.44113C8.51144 3 8.58175 3.03025 8.63238 3.0847L10.0133 4.54282L11.397 3.0847C11.4477 3.03025 11.5152 3 11.5883 3H17.6238C17.7757 3 17.8966 3.13008 17.8966 3.29343V14.9977C17.8966 15.1611 17.7757 15.2911 17.6238 15.2911H11.6444L10.1201 15.9779C10.0835 15.993 10.0498 15.999 10.0132 15.999L10.0134 15.9992ZM2.67847 14.7044H8.44128C8.47784 14.7044 8.51441 14.7135 8.54816 14.7286L10.0134 15.3911L11.4844 14.7286C11.5181 14.7135 11.5547 14.7044 11.5884 14.7044H17.3513V3.58695H11.6982L10.202 5.16304C10.0951 5.27497 9.92639 5.27497 9.8195 5.16304L8.3289 3.58695H2.67859L2.67847 14.7044Z" fill="#414141"/>
<path d="M16.055 7.74654H11.558C11.4061 7.74654 11.2852 7.61645 11.2852 7.4531C11.2852 7.28975 11.4061 7.15967 11.558 7.15967H16.055C16.2069 7.15967 16.3278 7.28975 16.3278 7.4531C16.3278 7.61645 16.2041 7.74654 16.055 7.74654Z" fill="#414141"/>
<path d="M16.055 9.79463H11.558C11.4061 9.79463 11.2852 9.66455 11.2852 9.5012C11.2852 9.33785 11.4061 9.20776 11.558 9.20776H16.055C16.2069 9.20776 16.3278 9.33785 16.3278 9.5012C16.3278 9.66455 16.2041 9.79463 16.055 9.79463Z" fill="#414141"/>
<path d="M16.055 11.8393H11.558C11.4061 11.8393 11.2852 11.7092 11.2852 11.5459C11.2852 11.3825 11.4061 11.2524 11.558 11.2524H16.055C16.2069 11.2524 16.3278 11.3825 16.3278 11.5459C16.3278 11.7092 16.2041 11.8393 16.055 11.8393Z" fill="#414141"/>
<path d="M10.0196 17.1698C9.54431 17.1698 9.08587 17.0064 8.63868 16.6767H1.2728C1.12093 16.6767 1 16.5466 1 16.3862V4.27366C1 4.1103 1.12094 3.98022 1.2728 3.98022C1.42467 3.98022 1.54561 4.11031 1.54561 4.27366V16.0898H8.72591C8.78497 16.0898 8.83841 16.108 8.88622 16.1473C9.62871 16.7281 10.4021 16.7251 11.2516 16.1382C11.2966 16.108 11.3472 16.0929 11.3978 16.0929H18.4516V4.44609C18.4516 4.28273 18.5725 4.15266 18.7244 4.15266C18.8763 4.15266 19 4.28274 19 4.44307V16.3834C19 16.5467 18.8791 16.6768 18.7272 16.6768H11.4794C10.9816 17.0065 10.4949 17.1698 10.0196 17.1698Z" fill="#414141"/>
<path d="M10.015 15.999C9.86312 15.999 9.74219 15.8689 9.74219 15.7056V4.95115C9.74219 4.78779 9.86312 4.65771 10.015 4.65771C10.1669 4.65771 10.2878 4.7878 10.2878 4.95115V15.7056C10.2878 15.8689 10.1669 15.999 10.015 15.999Z" fill="#414141"/>
</svg>
