<svg xmlns="http://www.w3.org/2000/svg" viewBox="0 0 805.78 263.47"><defs><style>.cls-1{fill:#fff;}</style></defs><g id="Mapa"><path class="cls-1" d="M131.44,218.56c7.93-32.89,15.32-64.49,23.33-95.93,1.64-6.4.61-10-4.64-14-12.22-9.35-23.89-19.42-35.77-29.2-1.43-1.17-2.81-2.38-4.5-3.83l49.92-55.89c1.54,7.9,3,15.11,4.36,22.32,7.08,37.4,14.1,74.81,21.3,112.19.72,3.75.13,6.37-2.58,9.24-15.51,16.42-30.8,33-46.17,49.6C135.24,214.6,133.75,216.13,131.44,218.56Z"/><path class="cls-1" d="M53.4,159.67c-6.12-1.79-8.94-7-12.27-12.31.61,12.43,11.52,29.61,24.72,40.32l-5.58-2.26c.44,1.37.78,2.45,1.2,3.74-.5-.1-1-.06-1.21-.27q-25.14-21-50.18-42.2a5.75,5.75,0,0,1-1.95-3.92q1.77-50,3.8-100a8.09,8.09,0,0,1,.61-1.66L51.77,73.74a87.3,87.3,0,0,0-12.38,43.43C39.2,132.65,42.32,147.53,53.4,159.67Z"/><path class="cls-1" d="M53.69,75.36,73.46,91.8q22.73,18.9,45.47,37.77c1.9,1.57,2.91,3.06,2.74,5.77-1.72,26.83-3.26,53.68-4.86,80.52-.26,4.43-.55,8.86-1.28,13.5-16.3-22.8-33.12-45.18-45.71-70.34A376.89,376.89,0,0,0,108,212.3c1.31-16.09.11-31.76-5.58-48.26-1.8,3.8-3.14,6.62-4.79,10.08-4.2-24.65-16-45-30.29-64.05-6.29-8.36-11-17.5-12.9-27.92C54.09,80.33,54,78.46,53.69,75.36Z"/><path class="cls-1" d="M62.55,68.63,111.83,104l.69-.86L53.34,54.57l.46-.64,48.13,33.36.6-.75L41.08,30.72c-2,4.21-3.84,7.91-5.64,11.61l-.55-.17c1.23-6.41,2.45-12.83,3.79-19.84,1.26.87,2.3,1.47,3.21,2.22q53.85,44.31,107.7,88.61c1.79,1.47,2.84,2.65,2.18,5.35-8,32.81-15.92,65.66-24.35,98.46.36-5.25.69-10.51,1.08-15.75,1.75-23.1,3.59-46.19,5.14-69.3.12-1.68-1.35-4-2.77-5.16q-32.4-27.23-65-54.21l-4-3.31Z"/><path class="cls-1" d="M192.41,22.09c4.48,23.11,8.76,45.38,13.1,67.63,4.75,24.39,9.6,48.76,14.22,73.18a6,6,0,0,1-1.64,5q-38.65,29.38-77.53,58.47a19.77,19.77,0,0,1-2.21,1c8.41-8.79,15.92-16.65,23.46-24.51,10.85-11.31,21.62-22.72,32.66-33.86,2.78-2.8,3.43-5.41,2.69-9.17C191.7,131.89,186.41,104,181.09,76a21.6,21.6,0,0,1,0-2.93c5.86,22.17,11.39,43.16,16.93,64.14l1.24-.28q-7.8-39.52-15.62-79l.48-.13,15.62,55.4,1.34-.28c-4-27.51-8-55-12.12-83.21l-10.39,4.78-.42-.56Z"/><path class="cls-1" d="M86.34,210.88c11.33-.12,16.63,8,23,17-2.38-.89-3.85-1.08-4.82-1.87C98.38,221.06,92.39,216,86.34,210.88Z"/><path class="cls-1" d="M267,114.35V22.44h28.4q16,0,24.25,5.86t8.21,17.4a19.18,19.18,0,0,1-3.74,11.95q-3.75,4.91-11.28,7.64A21.78,21.78,0,0,1,330.71,87.6q0,13.25-9.79,20t-29,6.75Zm20-55.59h7.29q6.47,0,10.11-2.82A9.48,9.48,0,0,0,308,48c0-3.42-1.15-5.94-3.46-7.54S298.66,38,293.76,38H287Zm0,39h9.13q6.58,0,10.36-3.23a11.06,11.06,0,0,0,3.78-8.87,10.41,10.41,0,0,0-3.68-8.53q-3.68-3-10.46-3H287Z"/><path class="cls-1" d="M340.85,68.39a51.67,51.67,0,0,1,3.52-19.11,47.88,47.88,0,0,1,10.37-15.94,44.43,44.43,0,0,1,15-10.3,46.74,46.74,0,0,1,61.33,26.11,52.85,52.85,0,0,1,3.45,19.24,53.32,53.32,0,0,1-2.41,16.23A45.43,45.43,0,0,1,425,98.5a46.88,46.88,0,0,1-16.51,13.89,45.78,45.78,0,0,1-53.72-9.07,48,48,0,0,1-10.37-15.88A51.13,51.13,0,0,1,340.85,68.39Zm22.57,0q0,12,7,20.07a22.57,22.57,0,0,0,34.58,0q7-8.05,7-20.1T405,48.2a22.54,22.54,0,0,0-34.58,0Q363.42,56.29,363.42,68.39Z"/><path class="cls-1" d="M444.18,68.39a51.47,51.47,0,0,1,3.52-19.11,47.86,47.86,0,0,1,10.36-15.94,44.52,44.52,0,0,1,15-10.3,46.39,46.39,0,0,1,51.16,10.43,45.33,45.33,0,0,1,10.17,15.68,52.65,52.65,0,0,1,3.46,19.24,53.63,53.63,0,0,1-2.41,16.23A45.87,45.87,0,0,1,528.3,98.5a46.91,46.91,0,0,1-16.52,13.89,45.8,45.8,0,0,1-53.72-9.07A48,48,0,0,1,447.7,87.44,50.93,50.93,0,0,1,444.18,68.39Zm22.56,0q0,12,7,20.07a22.57,22.57,0,0,0,34.58,0q7-8.05,7-20.1t-7-20.19a22.54,22.54,0,0,0-34.58,0Q466.75,56.29,466.74,68.39Z"/><path class="cls-1" d="M553.21,114.35V22.44h21.68v40l30.36-40h26.12L596.69,66.17l37.4,48.18h-26.5L574.89,72v42.34Z"/><path class="cls-1" d="M267,229.37V137.45h28.4q16,0,24.25,5.86t8.21,17.4a19.14,19.14,0,0,1-3.74,11.95q-3.75,4.92-11.28,7.64A22.67,22.67,0,0,1,326,188.13a22.41,22.41,0,0,1,4.75,14.49q0,13.24-9.79,20t-29,6.76Zm20-55.6h7.29q6.47,0,10.11-2.82A9.47,9.47,0,0,0,308,163c0-3.43-1.15-5.94-3.46-7.55s-5.9-2.41-10.8-2.41H287Zm0,39h9.13q6.58,0,10.36-3.24a11,11,0,0,0,3.78-8.87,10.41,10.41,0,0,0-3.68-8.53q-3.68-3-10.46-3H287Z"/><path class="cls-1" d="M367.35,137.45V188q0,12.18,4.47,18.23t13.53,6.05q8.75,0,13.35-5.64t4.59-16.42V137.45h19.59v52.74q0,19.91-10.21,31t-28.33,11.12q-18.33,0-28.5-11t-10.17-31V137.45Z"/><path class="cls-1" d="M443.29,229.37V137.45h21.93v91.92Z"/><path class="cls-1" d="M486.65,229.37V137.45h21.93v72.2H544.4v19.72Z"/><path class="cls-1" d="M555.17,229.37V137.45h24.41q25.73,0,40.31,12.3t14.58,33.66a42.89,42.89,0,0,1-22.69,39.05A47.38,47.38,0,0,1,598,227.75a88.32,88.32,0,0,1-18.41,1.62Zm21.68-19.72h4.82q14.39,0,22.5-7t8.12-19.27q0-12.3-8.12-19.34t-22.5-7h-4.82Z"/><path class="cls-1" d="M649.81,229.37V137.45h56.61v19H671.11V173h30.24v18.83H671.11V210h35.82v19.34Z"/><path class="cls-1" d="M723.66,229.37V137.45H747.3q11.36,0,17.59,1.49a30.76,30.76,0,0,1,11.07,5,25.64,25.64,0,0,1,7.95,9.09,24.48,24.48,0,0,1,2.82,11.44,26.61,26.61,0,0,1-4.4,15.22,29.07,29.07,0,0,1-12.71,10.2l28,39.5h-25L748.06,193.3H745v36.07Zm24.91-75.18H745v25.48h4.63q8.29,0,12.67-3.36t4.38-9.64q0-6.58-4.25-9.54T748.57,154.19Z"/></g></svg>