<svg width="176" height="44" viewBox="0 0 176 44" fill="none" xmlns="http://www.w3.org/2000/svg">
<path d="M23.1708 39.6681C24.6609 33.4878 26.0495 27.55 27.5546 21.6422C27.8628 20.4396 27.6693 19.7631 26.6828 19.0115C24.3865 17.2545 22.1936 15.3623 19.9613 13.5246C19.6926 13.3047 19.4333 13.0773 19.1157 12.8049L28.4961 2.30273C28.7854 3.7872 29.0598 5.14202 29.3153 6.49683C30.6457 13.5246 31.9648 20.5542 33.3178 27.5782C33.4531 28.2828 33.3422 28.7751 32.833 29.3144C29.9185 32.3999 27.0454 35.5154 24.1573 38.6346C23.8848 38.924 23.6048 39.2115 23.1708 39.6681Z" fill="#005EB5"/>
<path d="M8.50657 28.6023C7.35658 28.2659 6.82668 27.2869 6.20095 26.2891C6.31557 28.6248 8.36564 31.8531 10.846 33.8656L9.79749 33.4409C9.88017 33.6983 9.94406 33.9013 10.023 34.1437C9.92903 34.1249 9.83507 34.1324 9.79561 34.0929C6.64629 31.4622 3.50322 28.819 0.366419 26.1632C0.151923 25.9756 0.0202253 25.7109 0 25.4266C0.221731 19.1631 0.459747 12.8995 0.714048 6.6359C0.740742 6.52805 0.77918 6.42345 0.828672 6.32397L8.20028 12.4554C6.7225 14.9245 5.92022 17.739 5.87399 20.6162C5.83828 23.525 6.42456 26.3211 8.50657 28.6023Z" fill="#005EB5"/>
<path d="M8.56104 12.7595L12.276 15.8487C15.1234 18.2164 17.9714 20.5821 20.8201 22.946C21.1771 23.241 21.3669 23.521 21.335 24.0302C21.0118 29.0718 20.7224 34.1171 20.4218 39.1605C20.3729 39.9929 20.3184 40.8254 20.1812 41.6973C17.1183 37.413 13.9577 33.2076 11.592 28.4799C13.6881 32.0191 16.0886 35.369 18.7663 38.4916C19.0124 35.4681 18.787 32.5236 17.7178 29.4231C17.3795 30.1372 17.1277 30.6671 16.8177 31.3173C16.0285 26.6853 13.8112 22.8614 11.126 19.2818C9.94403 17.7109 9.05899 15.9934 8.70197 14.0354C8.6362 13.6934 8.61929 13.342 8.56104 12.7595Z" fill="#005EB5"/>
<path d="M10.2258 11.495L19.4859 18.1412L19.6156 17.9796L8.49521 8.85298L8.58165 8.73272L17.6256 15.0013L17.7384 14.8604L6.19147 4.37139C5.81565 5.16248 5.4699 5.85774 5.13167 6.553L5.02832 6.52105C5.25945 5.31657 5.48869 4.1102 5.74049 2.79297C5.97725 2.95645 6.17268 3.06919 6.34367 3.21012C13.0895 8.76091 19.8354 14.3111 26.5813 19.8606C26.9177 20.1368 27.115 20.3586 26.9909 20.8659C25.4877 27.0311 23.9995 33.2039 22.4154 39.3673C22.483 38.3808 22.545 37.3924 22.6183 36.4077C22.9472 32.0671 23.2929 27.7283 23.5842 23.3857C23.6067 23.0701 23.3305 22.6341 23.0637 22.4161C19.0049 19.005 14.9335 15.6095 10.8497 12.2297L10.0981 11.6077L10.2258 11.495Z" fill="#005EB5"/>
<path d="M34.6275 2.74976C35.4693 7.0923 36.2736 11.277 37.0891 15.4579C37.9817 20.041 38.893 24.6203 39.7611 29.209C39.7845 29.3787 39.7689 29.5516 39.7155 29.7144C39.6622 29.8772 39.5724 30.0256 39.453 30.1485C34.6112 33.829 29.7551 37.4913 24.8845 41.1355C24.7501 41.2066 24.6114 41.2693 24.4692 41.3234C26.0495 39.6717 27.4607 38.1947 28.8775 36.7178C30.9163 34.5925 32.9401 32.4485 35.0146 30.3552C35.537 29.8291 35.6591 29.3387 35.5201 28.6321C34.4941 23.382 33.5001 18.1413 32.5004 12.8798C32.4879 12.6965 32.4879 12.5126 32.5004 12.3293C33.6015 16.4952 34.6407 20.4394 35.6817 24.3817L35.9147 24.329C34.9376 19.3783 33.9592 14.4301 32.9796 9.48436L33.0698 9.45993L36.0049 19.87L36.2567 19.8174C35.505 14.6481 34.7534 9.48248 33.9792 4.18161L32.0269 5.07981L31.948 4.97458L34.6275 2.74976Z" fill="#005EB5"/>
<path d="M14.6963 38.2249C16.8253 38.2023 17.8212 39.7281 19.0182 41.4193C18.5709 41.252 18.2947 41.2163 18.1124 41.0679C16.9587 40.1378 15.8331 39.1869 14.6963 38.2249Z" fill="#005EB5"/>
<path d="M60.8186 10.082V16.8438C60.553 17.1641 60.1428 17.5117 59.5881 17.8867C59.0334 18.2539 58.3186 18.5703 57.4436 18.8359C56.5686 19.1016 55.51 19.2344 54.2678 19.2344C53.1663 19.2344 52.1624 19.0547 51.2561 18.6953C50.3499 18.3281 49.5686 17.793 48.9124 17.0898C48.2639 16.3867 47.7639 15.5273 47.4124 14.5117C47.0608 13.4883 46.885 12.3203 46.885 11.0078V9.94141C46.885 8.62891 47.053 7.46094 47.3889 6.4375C47.7327 5.41406 48.2209 4.55078 48.8538 3.84766C49.4866 3.14453 50.2405 2.60937 51.1155 2.24219C51.9905 1.875 52.9631 1.69141 54.0334 1.69141C55.5178 1.69141 56.7366 1.93359 57.6897 2.41797C58.6428 2.89453 59.3694 3.55859 59.8694 4.41016C60.3772 5.25391 60.6897 6.22266 60.8069 7.31641H57.3967C57.3108 6.73828 57.1467 6.23438 56.9045 5.80469C56.6624 5.375 56.3147 5.03906 55.8616 4.79688C55.4163 4.55469 54.8381 4.43359 54.1272 4.43359C53.5413 4.43359 53.0178 4.55469 52.5569 4.79688C52.1038 5.03125 51.7209 5.37891 51.4084 5.83984C51.0959 6.30078 50.8577 6.87109 50.6936 7.55078C50.5295 8.23047 50.4475 9.01953 50.4475 9.91797V11.0078C50.4475 11.8984 50.5334 12.6875 50.7053 13.375C50.8772 14.0547 51.1311 14.6289 51.467 15.0977C51.8108 15.5586 52.2327 15.9062 52.7327 16.1406C53.2327 16.375 53.8147 16.4922 54.4788 16.4922C55.0334 16.4922 55.4944 16.4453 55.8616 16.3516C56.2366 16.2578 56.5374 16.1445 56.7639 16.0117C56.9983 15.8711 57.178 15.7383 57.303 15.6133V12.5898H54.092V10.082H60.8186ZM63.8945 1.9375H70.2578C71.5625 1.9375 72.6836 2.13281 73.6211 2.52344C74.5664 2.91406 75.293 3.49219 75.8008 4.25781C76.3086 5.02344 76.5625 5.96484 76.5625 7.08203C76.5625 7.99609 76.4063 8.78125 76.0938 9.4375C75.7891 10.0859 75.3555 10.6289 74.793 11.0664C74.2383 11.4961 73.5859 11.8398 72.8359 12.0977L71.7227 12.6836H66.1914L66.168 9.94141H70.2813C70.8984 9.94141 71.4102 9.83203 71.8164 9.61328C72.2227 9.39453 72.5274 9.08984 72.7305 8.69922C72.9414 8.30859 73.0469 7.85547 73.0469 7.33984C73.0469 6.79297 72.9453 6.32031 72.7422 5.92188C72.5391 5.52344 72.2305 5.21875 71.8164 5.00781C71.4024 4.79688 70.8828 4.69141 70.2578 4.69141H67.4102V19H63.8945V1.9375ZM73.4336 19L69.543 11.3945L73.2578 11.3711L77.1953 18.8359V19H73.4336ZM86.447 4.85547L81.8064 19H78.0681L84.408 1.9375H86.7869L86.447 4.85547ZM90.3025 19L85.6502 4.85547L85.2752 1.9375H87.6775L94.0525 19H90.3025ZM90.0916 12.6484V15.4023H81.0799V12.6484H90.0916ZM102.05 1.9375V19H98.5464V1.9375H102.05ZM107.3 1.9375V4.69141H93.3784V1.9375H107.3ZM113.283 1.9375V19H109.779V1.9375H113.283ZM124.093 1.9375V19H120.589V1.9375H124.093ZM129.343 1.9375V4.69141H115.421V1.9375H129.343ZM141.009 1.9375H144.513V13.2109C144.513 14.5234 144.231 15.6289 143.669 16.5273C143.114 17.4258 142.345 18.1016 141.36 18.5547C140.384 19.0078 139.259 19.2344 137.985 19.2344C136.712 19.2344 135.579 19.0078 134.587 18.5547C133.602 18.1016 132.829 17.4258 132.266 16.5273C131.712 15.6289 131.434 14.5234 131.434 13.2109V1.9375H134.95V13.2109C134.95 13.9766 135.071 14.6016 135.313 15.0859C135.555 15.5703 135.903 15.9258 136.356 16.1523C136.817 16.3789 137.36 16.4922 137.985 16.4922C138.626 16.4922 139.169 16.3789 139.614 16.1523C140.067 15.9258 140.411 15.5703 140.645 15.0859C140.888 14.6016 141.009 13.9766 141.009 13.2109V1.9375ZM152.885 19H149.17L149.194 16.2578H152.885C153.807 16.2578 154.585 16.0508 155.217 15.6367C155.85 15.2148 156.327 14.6016 156.647 13.7969C156.975 12.9922 157.139 12.0195 157.139 10.8789V10.0469C157.139 9.17188 157.045 8.40234 156.858 7.73828C156.678 7.07422 156.409 6.51563 156.049 6.0625C155.69 5.60937 155.249 5.26953 154.725 5.04297C154.202 4.80859 153.6 4.69141 152.92 4.69141H149.1V1.9375H152.92C154.061 1.9375 155.104 2.13281 156.049 2.52344C157.003 2.90625 157.827 3.45703 158.522 4.17578C159.217 4.89453 159.753 5.75391 160.128 6.75391C160.51 7.74609 160.702 8.85156 160.702 10.0703V10.8789C160.702 12.0898 160.51 13.1953 160.128 14.1953C159.753 15.1953 159.217 16.0547 158.522 16.7734C157.835 17.4844 157.01 18.0352 156.049 18.4258C155.096 18.8086 154.042 19 152.885 19ZM151.163 1.9375V19H147.647V1.9375H151.163ZM174.946 16.2578V19H165.864V16.2578H174.946ZM167.012 1.9375V19H163.496V1.9375H167.012ZM173.762 8.88672V11.5586H165.864V8.88672H173.762ZM174.934 1.9375V4.69141H165.864V1.9375H174.934ZM53.9749 33.5117H49.592L49.5686 31.0977H53.2483C53.8967 31.0977 54.428 31.0156 54.842 30.8516C55.2561 30.6797 55.5647 30.4336 55.7678 30.1133C55.9788 29.7852 56.0842 29.3867 56.0842 28.918C56.0842 28.3867 55.9827 27.957 55.7795 27.6289C55.5842 27.3008 55.2756 27.0625 54.8538 26.9141C54.4397 26.7656 53.9045 26.6914 53.2483 26.6914H50.8108V41H47.2952V23.9375H53.2483C54.2405 23.9375 55.1272 24.0312 55.9084 24.2188C56.6975 24.4062 57.3655 24.6914 57.9124 25.0742C58.4592 25.457 58.8772 25.9414 59.1663 26.5273C59.4553 27.1055 59.5999 27.793 59.5999 28.5898C59.5999 29.293 59.4397 29.9414 59.1194 30.5352C58.8069 31.1289 58.3108 31.6133 57.6311 31.9883C56.9592 32.3633 56.0803 32.5703 54.9944 32.6094L53.9749 33.5117ZM53.8225 41H48.6311L50.0022 38.2578H53.8225C54.4397 38.2578 54.9436 38.1602 55.3342 37.9648C55.7249 37.7617 56.0139 37.4883 56.2014 37.1445C56.3889 36.8008 56.4827 36.4062 56.4827 35.9609C56.4827 35.4609 56.3967 35.0273 56.2249 34.6602C56.0608 34.293 55.7952 34.0117 55.428 33.8164C55.0608 33.6133 54.5764 33.5117 53.9749 33.5117H50.5881L50.6116 31.0977H54.8303L55.6389 32.0469C56.678 32.0312 57.5139 32.2148 58.1467 32.5977C58.7874 32.9727 59.2522 33.4609 59.5413 34.0625C59.8381 34.6641 59.9866 35.3086 59.9866 35.9961C59.9866 37.0898 59.7483 38.0117 59.2717 38.7617C58.7952 39.5039 58.0959 40.0625 57.1741 40.4375C56.26 40.8125 55.1428 41 53.8225 41ZM72.2852 23.9375H75.7891V35.2109C75.7891 36.5234 75.5078 37.6289 74.9453 38.5273C74.3906 39.4258 73.6211 40.1016 72.6367 40.5547C71.6602 41.0078 70.5352 41.2344 69.2617 41.2344C67.9883 41.2344 66.8555 41.0078 65.8633 40.5547C64.8789 40.1016 64.1055 39.4258 63.543 38.5273C62.9883 37.6289 62.7109 36.5234 62.7109 35.2109V23.9375H66.2266V35.2109C66.2266 35.9766 66.3477 36.6016 66.5899 37.0859C66.832 37.5703 67.1797 37.9258 67.6328 38.1523C68.0938 38.3789 68.6367 38.4922 69.2617 38.4922C69.9024 38.4922 70.4453 38.3789 70.8906 38.1523C71.3438 37.9258 71.6875 37.5703 71.9219 37.0859C72.1641 36.6016 72.2852 35.9766 72.2852 35.2109V23.9375ZM82.6619 23.9375V41H79.158V23.9375H82.6619ZM97.1636 38.2578V41H88.5738V38.2578H97.1636ZM89.7105 23.9375V41H86.1949V23.9375H89.7105ZM104.658 41H100.943L100.966 38.2578H104.658C105.579 38.2578 106.357 38.0508 106.99 37.6367C107.622 37.2148 108.099 36.6016 108.419 35.7969C108.747 34.9922 108.911 34.0195 108.911 32.8789V32.0469C108.911 31.1719 108.818 30.4023 108.63 29.7383C108.45 29.0742 108.181 28.5156 107.822 28.0625C107.462 27.6094 107.021 27.2695 106.497 27.043C105.974 26.8086 105.372 26.6914 104.693 26.6914H100.872V23.9375H104.693C105.833 23.9375 106.876 24.1328 107.822 24.5234C108.775 24.9062 109.599 25.457 110.294 26.1758C110.99 26.8945 111.525 27.7539 111.9 28.7539C112.283 29.7461 112.474 30.8516 112.474 32.0703V32.8789C112.474 34.0898 112.283 35.1953 111.9 36.1953C111.525 37.1953 110.99 38.0547 110.294 38.7734C109.607 39.4844 108.783 40.0352 107.822 40.4258C106.868 40.8086 105.814 41 104.658 41ZM102.935 23.9375V41H99.4192V23.9375H102.935ZM126.718 38.2578V41H117.636V38.2578H126.718ZM118.784 23.9375V41H115.269V23.9375H118.784ZM125.534 30.8867V33.5586H117.636V30.8867H125.534ZM126.706 23.9375V26.6914H117.636V23.9375H126.706ZM129.009 23.9375H135.372C136.677 23.9375 137.798 24.1328 138.735 24.5234C139.68 24.9141 140.407 25.4922 140.915 26.2578C141.423 27.0234 141.677 27.9648 141.677 29.082C141.677 29.9961 141.52 30.7812 141.208 31.4375C140.903 32.0859 140.47 32.6289 139.907 33.0664C139.352 33.4961 138.7 33.8398 137.95 34.0977L136.837 34.6836H131.305L131.282 31.9414H135.395C136.013 31.9414 136.524 31.832 136.93 31.6133C137.337 31.3945 137.641 31.0898 137.845 30.6992C138.055 30.3086 138.161 29.8555 138.161 29.3398C138.161 28.793 138.059 28.3203 137.856 27.9219C137.653 27.5234 137.345 27.2188 136.93 27.0078C136.516 26.7969 135.997 26.6914 135.372 26.6914H132.524V41H129.009V23.9375ZM138.548 41L134.657 33.3945L138.372 33.3711L142.309 40.8359V41H138.548Z" fill="#005EB5"/>
</svg>
