<svg width="20" height="20" viewBox="0 0 20 20" fill="none" xmlns="http://www.w3.org/2000/svg">
<path d="M10.9 19H9.1C8.86131 19 8.63239 18.9052 8.4636 18.7364C8.29482 18.5676 8.2 18.3387 8.2 18.1V16.969C7.54781 16.8026 6.92256 16.5445 6.343 16.2022L5.5441 17.0011C5.37314 17.1647 5.14563 17.256 4.909 17.256C4.67237 17.256 4.44486 17.1647 4.2739 17.0011L2.9989 15.7261C2.91539 15.6428 2.84914 15.5438 2.80394 15.4348C2.75874 15.3258 2.73547 15.209 2.73547 15.091C2.73547 14.973 2.75874 14.8562 2.80394 14.7472C2.84914 14.6382 2.91539 14.5392 2.9989 14.4559L3.7978 13.657C3.45554 13.0774 3.19736 12.4522 3.031 11.8H1.9C1.66131 11.8 1.43239 11.7052 1.2636 11.5364C1.09482 11.3676 1 11.1387 1 10.9V9.1C1 8.86131 1.09482 8.63239 1.2636 8.4636C1.43239 8.29482 1.66131 8.2 1.9 8.2H3.031C3.19736 7.54781 3.45554 6.92256 3.7978 6.343L2.9989 5.5441C2.91539 5.46076 2.84914 5.36176 2.80394 5.25278C2.75874 5.1438 2.73547 5.02698 2.73547 4.909C2.73547 4.79102 2.75874 4.6742 2.80394 4.56522C2.84914 4.45624 2.91539 4.35724 2.9989 4.2739L4.2739 2.9989C4.44486 2.8353 4.67237 2.74398 4.909 2.74398C5.14563 2.74398 5.37314 2.8353 5.5441 2.9989L6.343 3.7978C6.92256 3.45554 7.54781 3.19736 8.2 3.031V1.9C8.2 1.66131 8.29482 1.43239 8.4636 1.2636C8.63239 1.09482 8.86131 1 9.1 1H10.9C11.1387 1 11.3676 1.09482 11.5364 1.2636C11.7052 1.43239 11.8 1.66131 11.8 1.9V3.031C12.4522 3.19736 13.0774 3.45554 13.657 3.7978L14.4559 2.9989C14.6269 2.8353 14.8544 2.74398 15.091 2.74398C15.3276 2.74398 15.5551 2.8353 15.7261 2.9989L17.0011 4.2739C17.0846 4.35724 17.1509 4.45624 17.1961 4.56522C17.2413 4.6742 17.2645 4.79102 17.2645 4.909C17.2645 5.02698 17.2413 5.1438 17.1961 5.25278C17.1509 5.36176 17.0846 5.46076 17.0011 5.5441L16.2022 6.343C16.5445 6.92256 16.8026 7.54781 16.969 8.2H18.1C18.3387 8.2 18.5676 8.29482 18.7364 8.4636C18.9052 8.63239 19 8.86131 19 9.1V10.9C19 11.1387 18.9052 11.3676 18.7364 11.5364C18.5676 11.7052 18.3387 11.8 18.1 11.8H16.969C16.8026 12.4522 16.5445 13.0774 16.2022 13.657L17.0011 14.4559C17.0846 14.5392 17.1509 14.6382 17.1961 14.7472C17.2413 14.8562 17.2645 14.973 17.2645 15.091C17.2645 15.209 17.2413 15.3258 17.1961 15.4348C17.1509 15.5438 17.0846 15.6428 17.0011 15.7261L15.7261 17.0011C15.5551 17.1647 15.3276 17.256 15.091 17.256C14.8544 17.256 14.6269 17.1647 14.4559 17.0011L13.657 16.2022C13.0774 16.5445 12.4522 16.8026 11.8 16.969V18.1C11.8 18.3387 11.7052 18.5676 11.5364 18.7364C11.3676 18.9052 11.1387 19 10.9 19ZM6.2983 15.523C6.35515 15.5231 6.41082 15.5393 6.4588 15.5698C7.10404 15.9812 7.81674 16.2757 8.5642 16.4398C8.63089 16.4544 8.69059 16.4913 8.73346 16.5444C8.77634 16.5976 8.79981 16.6637 8.8 16.732V18.1C8.8 18.1796 8.83161 18.2559 8.88787 18.3121C8.94413 18.3684 9.02044 18.4 9.1 18.4H10.9C10.9796 18.4 11.0559 18.3684 11.1121 18.3121C11.1684 18.2559 11.2 18.1796 11.2 18.1V16.732C11.2 16.6636 11.2234 16.5972 11.2663 16.5439C11.3091 16.4906 11.369 16.4535 11.4358 16.4389C12.1833 16.2748 12.896 15.9803 13.5412 15.5689C13.5988 15.5323 13.6671 15.5165 13.7349 15.524C13.8027 15.5314 13.8659 15.5618 13.9141 15.61L14.8801 16.576C14.9366 16.6301 15.0119 16.6602 15.0901 16.6602C15.1683 16.6602 15.2436 16.6301 15.3001 16.576L16.5754 15.301C16.6032 15.2734 16.6252 15.2405 16.6402 15.2044C16.6553 15.1682 16.663 15.1294 16.663 15.0903C16.663 15.0511 16.6553 15.0123 16.6402 14.9761C16.6252 14.94 16.6032 14.9071 16.5754 14.8795L15.61 13.9141C15.5618 13.8659 15.5314 13.8027 15.524 13.7349C15.5165 13.6671 15.5323 13.5988 15.5689 13.5412C15.9803 12.896 16.2748 12.1833 16.4389 11.4358C16.4535 11.369 16.4906 11.3091 16.5439 11.2663C16.5972 11.2234 16.6636 11.2 16.732 11.2H18.1C18.1796 11.2 18.2559 11.1684 18.3121 11.1121C18.3684 11.0559 18.4 10.9796 18.4 10.9V9.1C18.4 9.02044 18.3684 8.94413 18.3121 8.88787C18.2559 8.83161 18.1796 8.8 18.1 8.8H16.732C16.6636 8.80001 16.5972 8.77663 16.5439 8.73375C16.4906 8.69086 16.4535 8.63104 16.4389 8.5642C16.2748 7.81674 15.9803 7.10404 15.5689 6.4588C15.5323 6.40123 15.5165 6.33292 15.524 6.26513C15.5314 6.19735 15.5618 6.13413 15.61 6.0859L16.576 5.1199C16.6038 5.09227 16.6258 5.05943 16.6408 5.02327C16.6559 4.9871 16.6636 4.94832 16.6636 4.90915C16.6636 4.86998 16.6559 4.8312 16.6408 4.79503C16.6258 4.75887 16.6038 4.72603 16.576 4.6984L15.301 3.4231C15.2443 3.36874 15.1688 3.33838 15.0903 3.33838C15.0117 3.33838 14.9362 3.36874 14.8795 3.4231L13.9141 4.39C13.8659 4.43821 13.8027 4.46856 13.7349 4.47603C13.6671 4.4835 13.5988 4.46765 13.5412 4.4311C12.896 4.01967 12.1833 3.72517 11.4358 3.5611C11.369 3.54646 11.3091 3.50941 11.2663 3.4561C11.2234 3.40279 11.2 3.33642 11.2 3.268V1.9C11.2 1.82044 11.1684 1.74413 11.1121 1.68787C11.0559 1.63161 10.9796 1.6 10.9 1.6H9.1C9.02044 1.6 8.94413 1.63161 8.88787 1.68787C8.83161 1.74413 8.8 1.82044 8.8 1.9V3.268C8.80001 3.33642 8.77663 3.40279 8.73375 3.4561C8.69086 3.50941 8.63104 3.54646 8.5642 3.5611C7.81674 3.72517 7.10404 4.01967 6.4588 4.4311C6.40123 4.46765 6.33292 4.4835 6.26513 4.47603C6.19735 4.46856 6.13413 4.43821 6.0859 4.39L5.1199 3.424C5.06321 3.36964 4.9877 3.33928 4.90915 3.33928C4.8306 3.33928 4.75509 3.36964 4.6984 3.424L3.4231 4.699C3.36748 4.75474 3.33625 4.83026 3.33625 4.909C3.33625 4.98774 3.36748 5.06326 3.4231 5.119L4.3891 6.0853C4.43731 6.13353 4.46766 6.19675 4.47513 6.26453C4.4826 6.33232 4.46675 6.40063 4.4302 6.4582C4.01877 7.10345 3.72427 7.81614 3.5602 8.5636C3.54571 8.6304 3.50885 8.69024 3.45571 8.73323C3.40257 8.77622 3.33635 8.79978 3.268 8.8H1.9C1.82044 8.8 1.74413 8.83161 1.68787 8.88787C1.63161 8.94413 1.6 9.02044 1.6 9.1V10.9C1.6 10.9796 1.63161 11.0559 1.68787 11.1121C1.74413 11.1684 1.82044 11.2 1.9 11.2H3.268C3.33642 11.2 3.40279 11.2234 3.4561 11.2663C3.50941 11.3091 3.54646 11.369 3.5611 11.4358C3.72517 12.1833 4.01967 12.896 4.4311 13.5412C4.46765 13.5988 4.4835 13.6671 4.47603 13.7349C4.46856 13.8027 4.43821 13.8659 4.39 13.9141L3.424 14.8801C3.36838 14.9358 3.33715 15.0114 3.33715 15.0901C3.33715 15.1688 3.36838 15.2444 3.424 15.3001L4.699 16.5754C4.75555 16.6295 4.83077 16.6596 4.909 16.6596C4.98723 16.6596 5.06245 16.6295 5.119 16.5754L6.0853 15.6094C6.11338 15.5817 6.14665 15.5598 6.1832 15.545C6.21975 15.5302 6.25886 15.5227 6.2983 15.523Z" fill="#414141"/>
<path d="M10.0016 13.9001C9.23022 13.9001 8.47619 13.6714 7.83484 13.2428C7.19349 12.8143 6.69362 12.2052 6.39843 11.4926C6.10325 10.7799 6.02602 9.99577 6.1765 9.23925C6.32698 8.48272 6.69842 7.78781 7.24385 7.24238C7.78927 6.69696 8.48419 6.32552 9.24071 6.17504C9.99724 6.02455 10.7814 6.10179 11.494 6.39697C12.2067 6.69215 12.8158 7.19202 13.2443 7.83338C13.6728 8.47473 13.9016 9.22875 13.9016 10.0001C13.9004 11.0341 13.4891 12.0254 12.758 12.7565C12.0268 13.4876 11.0355 13.8989 10.0016 13.9001ZM10.0016 6.7001C9.34889 6.7001 8.71086 6.89364 8.16818 7.25625C7.6255 7.61886 7.20253 8.13425 6.95276 8.73724C6.70299 9.34024 6.63764 10.0038 6.76497 10.6439C6.8923 11.284 7.2066 11.872 7.66811 12.3336C8.12962 12.7951 8.71763 13.1094 9.35777 13.2367C9.9979 13.364 10.6614 13.2987 11.2644 13.0489C11.8674 12.7991 12.3828 12.3762 12.7454 11.8335C13.108 11.2908 13.3016 10.6528 13.3016 10.0001C13.3005 9.1252 12.9525 8.28643 12.3339 7.66779C11.7152 7.04914 10.8765 6.70113 10.0016 6.7001Z" fill="#414141"/>
<path d="M9.99922 12.0319C9.94658 12.032 9.89485 12.0182 9.84922 11.992L8.34922 11.1259C8.30361 11.0995 8.26574 11.0617 8.23941 11.0161C8.21308 10.9705 8.19922 10.9187 8.19922 10.8661V9.13387C8.19922 9.08121 8.21308 9.02947 8.23941 8.98387C8.26574 8.93827 8.30361 8.9004 8.34922 8.87407L9.84922 8.00797C9.89482 7.98164 9.94656 7.96777 9.99922 7.96777C10.0519 7.96777 10.1036 7.98164 10.1492 8.00797L11.6492 8.87407C11.6948 8.9004 11.7327 8.93827 11.759 8.98387C11.7854 9.02947 11.7992 9.08121 11.7992 9.13387V10.8661C11.7992 10.9187 11.7854 10.9705 11.759 11.0161C11.7327 11.0617 11.6948 11.0995 11.6492 11.1259L10.1492 11.992C10.1036 12.0182 10.0519 12.032 9.99922 12.0319ZM8.79922 10.693L9.99922 11.3857L11.1992 10.693V9.30697L9.99922 8.61427L8.79922 9.30697V10.693Z" fill="#414141"/>
<path d="M9.99844 15.0999C8.98976 15.0999 8.00372 14.8008 7.16503 14.2404C6.32634 13.68 5.67266 12.8835 5.28665 11.9516C4.90065 11.0197 4.79965 9.99425 4.99643 9.00494C5.19322 8.01564 5.67895 7.10691 6.3922 6.39366C7.10544 5.68041 8.01418 5.19468 9.00348 4.9979C9.99278 4.80112 11.0182 4.90211 11.9501 5.28812C12.882 5.67413 13.6785 6.32781 14.2389 7.1665C14.7993 8.00519 15.0984 8.99122 15.0984 9.9999C15.0969 11.352 14.5591 12.6484 13.603 13.6045C12.6469 14.5606 11.3506 15.0984 9.99844 15.0999ZM9.99844 5.4999C9.10842 5.4999 8.2384 5.76382 7.49837 6.25829C6.75835 6.75276 6.18158 7.45556 5.84098 8.27783C5.50039 9.1001 5.41127 10.0049 5.58491 10.8778C5.75854 11.7507 6.18712 12.5525 6.81646 13.1819C7.4458 13.8112 8.24762 14.2398 9.12053 14.4134C9.99345 14.5871 10.8982 14.498 11.7205 14.1574C12.5428 13.8168 13.2456 13.24 13.7401 12.5C14.2345 11.7599 14.4984 10.8899 14.4984 9.9999C14.4971 8.80684 14.0226 7.66304 13.1789 6.81941C12.3353 5.97579 11.1915 5.50125 9.99844 5.4999Z" fill="#414141"/>
</svg>
