<svg width="20" height="20" viewBox="0 0 20 20" fill="none" xmlns="http://www.w3.org/2000/svg">
<path d="M10.744 11.0691H8.94337C7.98902 11.0691 7.07265 11.4424 6.39765 12.1075C5.72266 12.7725 5.34375 13.6754 5.34375 14.6156V16.3898C5.34375 16.625 5.43826 16.8503 5.60703 17.0166C5.7758 17.1829 6.00445 17.276 6.24325 17.276H13.4443C13.6831 17.276 13.9117 17.1829 14.0805 17.0166C14.2492 16.8503 14.3438 16.625 14.3438 16.3898V14.6156C14.3438 13.6754 13.9649 12.7725 13.2898 12.1075C12.6148 11.4424 11.6983 11.0691 10.744 11.0691ZM13.4442 15.9467C13.4442 16.0647 13.3961 16.1761 13.3117 16.2593C13.2273 16.3424 13.1134 16.3898 12.9936 16.3898H6.69293C6.44402 16.3898 6.24319 16.1911 6.24319 15.9459V14.6157C6.24319 13.1467 7.45237 11.9553 8.94335 11.9553H10.744C12.235 11.9553 13.4442 13.1467 13.4442 14.6157L13.4442 15.9467Z" fill="#414141"/>
<path d="M4.64422 13.9017H2.3301C2.08573 13.9017 1.88707 13.7019 1.88707 13.4552V13.0095C1.88291 12.9652 1.88291 12.92 1.88707 12.8757C1.93528 12.1867 2.25448 11.5445 2.77399 11.0921C2.84048 11.0244 2.91114 10.9616 2.98678 10.9048L3.18212 10.771H3.18129C3.29516 10.6991 3.41319 10.6372 3.53622 10.5837C3.68501 10.5193 3.83962 10.4691 3.99756 10.4315C4.3633 10.3604 4.73984 10.3604 5.10557 10.4315H5.14962C5.30755 10.4691 5.46217 10.5193 5.61095 10.5837C5.73481 10.6347 5.85284 10.6974 5.96589 10.771L6.16123 10.9048L6.37402 11.0921L6.47127 11.1991C6.70069 11.0177 6.94674 10.8596 7.2069 10.7258C6.5735 10.0034 5.67662 9.56854 4.71978 9.5217C3.76304 9.47403 2.82876 9.81855 2.12797 10.475C1.42724 11.1322 1.02079 12.0462 1 13.0096V13.9018C1 14.1384 1.09393 14.3651 1.26018 14.5323C1.42643 14.6995 1.65168 14.7932 1.88692 14.7932H4.54682C4.54848 14.4938 4.58188 14.1944 4.64422 13.9017Z" fill="#414141"/>
<path d="M5.84994 8.01062C5.73937 7.72622 5.66026 7.43195 5.61434 7.13107C5.32939 7.30665 4.99936 7.40061 4.66167 7.40392C4.03564 7.40969 3.45043 7.10222 3.11359 6.59031C2.7776 6.07841 2.73677 5.43378 3.00727 4.88645C3.27776 4.33909 3.82044 3.96485 4.44308 3.89808C5.06487 3.83049 5.67984 4.07861 6.0677 4.55507C6.2123 4.28057 6.38496 4.02092 6.58486 3.78103C5.86695 3.07954 4.80457 2.82483 3.83139 3.12239C2.85918 3.42081 2.13957 4.22038 1.96859 5.19473C1.79678 6.16908 2.2025 7.15498 3.01822 7.74773C3.83394 8.34124 4.92355 8.44264 5.84137 8.01069L5.84994 8.01062Z" fill="#414141"/>
<path d="M15.2773 9.20679C14.1959 9.22686 13.1765 9.71652 12.4844 10.5475C12.782 10.6705 13.0657 10.8233 13.3319 11.004L13.434 10.8923C13.5038 10.8216 13.578 10.757 13.6574 10.6967L13.8625 10.5571C13.9812 10.4829 14.106 10.4174 14.2344 10.3616C14.3915 10.2952 14.5529 10.242 14.7188 10.2036C15.1028 10.1285 15.4982 10.1285 15.8822 10.2036H15.9293C16.0943 10.242 16.2566 10.2952 16.4129 10.3616C16.5429 10.4157 16.6677 10.4811 16.7856 10.5571L16.9907 10.6967L17.2141 10.8923C17.7587 11.3645 18.0939 12.0348 18.1445 12.754C18.1498 12.8378 18.1498 12.9216 18.1445 13.0054V13.3598C18.1445 13.4828 18.0956 13.6015 18.0084 13.6889C17.9211 13.7762 17.8024 13.825 17.6793 13.825H15.1753C15.2433 14.1436 15.2774 14.4674 15.2774 14.793H18.0703C18.3173 14.793 18.5539 14.6952 18.7284 14.5207C18.903 14.3461 19.0016 14.1096 19.0016 13.8625V12.9312C19.0016 11.9431 18.6089 10.9961 17.9106 10.2979C17.2124 9.59963 16.2653 9.20679 15.2773 9.20679Z" fill="#414141"/>
<path d="M15.3164 3.0007C14.6028 3.0007 13.9179 3.27933 13.4138 3.77396C13.6116 4.01384 13.7824 4.27352 13.9254 4.54804C14.3563 3.99818 15.0774 3.7484 15.7666 3.90999C16.4549 4.07074 16.9817 4.61399 17.1129 5.29575C17.2434 5.9775 16.9531 6.66996 16.3708 7.06565C15.7893 7.46052 15.0244 7.48361 14.4185 7.12418C14.3731 7.42508 14.2948 7.71937 14.1855 8.00378C14.9268 8.36238 15.7961 8.36651 16.5408 8.01615C17.2864 7.66579 17.8266 6.99889 18.005 6.20832C18.1842 5.41693 17.9823 4.58926 17.4572 3.96352C16.9321 3.33784 16.1427 2.98257 15.3164 3.0007Z" fill="#414141"/>
<path d="M9.84631 10.1379C10.7931 10.1379 11.7007 9.7615 12.3698 9.09229C13.0388 8.42307 13.4153 7.51545 13.4153 6.56855C13.4153 5.62244 13.0389 4.71398 12.3698 4.04481C11.7006 3.37564 10.7931 3 9.84631 3C8.89952 3 7.99196 3.37559 7.32287 4.04481C6.65377 4.71402 6.27734 5.62248 6.27734 6.56855C6.27734 7.51549 6.65373 8.42312 7.32287 9.09229C7.992 9.76146 8.89952 10.1379 9.84631 10.1379ZM9.84631 3.89165C10.9286 3.89165 11.9047 4.54414 12.3188 5.54462C12.7337 6.5451 12.5045 7.69617 11.7392 8.46153C10.9738 9.22694 9.82209 9.45615 8.82173 9.04207C7.8222 8.62716 7.16981 7.65177 7.16981 6.56844C7.16981 5.09032 8.36837 3.89165 9.84631 3.89165Z" fill="#414141"/>
</svg>
